<?xml version="1.0" encoding="UTF-8"?>
<svg xmlns="http://www.w3.org/2000/svg" viewBox="0 0 1000 790" width="1000" height="790"
     font-family="Arial, sans-serif">

  <!-- Background -->
  <rect width="1000" height="790" fill="#f5f4ef"/>

  <!-- Title -->
  <text x="500" y="28" text-anchor="middle" font-size="16" font-weight="bold" fill="#111">
    ESP8266 RGB LED Strip Controller — 24V Circuit Diagram
  </text>
  <line x1="20" y1="37" x2="980" y2="37" stroke="#bbb" stroke-width="1"/>

  <!-- ═══════════════════════════════════════════════════
       24V LED STRIP  (top-left)
       4-wire common-cathode: +24V, R−, G−, B−
       rect x:80..530, y:75..140
       ═══════════════════════════════════════════════════ -->
  <rect x="80" y="75" width="450" height="65" rx="6" fill="#12123a" stroke="#4444aa" stroke-width="2"/>
  <text x="305" y="97"  text-anchor="middle" font-size="12" font-weight="bold" fill="white">24V RGB LED STRIP</text>
  <text x="305" y="112" text-anchor="middle" font-size="9"  fill="#aaaadd">Non-addressable, common-cathode (shared GND)</text>

  <!-- Decorative LEDs -->
  <circle cx="96"  cy="128" r="6" fill="#ff3333" opacity="0.85"/>
  <circle cx="112" cy="128" r="6" fill="#ff8800" opacity="0.85"/>
  <circle cx="128" cy="128" r="6" fill="#ffff22" opacity="0.85"/>
  <circle cx="144" cy="128" r="6" fill="#22ff22" opacity="0.85"/>
  <circle cx="160" cy="128" r="6" fill="#22ffff" opacity="0.85"/>
  <circle cx="176" cy="128" r="6" fill="#2222ff" opacity="0.85"/>
  <circle cx="192" cy="128" r="6" fill="#ff22ff" opacity="0.85"/>
  <text x="210" y="132" font-size="9" fill="#777">· · ·</text>

  <!-- Strip terminal labels (bottom edge) -->
  <text x="130" y="148" text-anchor="middle" font-size="8" fill="#cc2222" font-weight="bold">+24V</text>
  <text x="240" y="148" text-anchor="middle" font-size="8" fill="#ff6666">R−</text>
  <text x="350" y="148" text-anchor="middle" font-size="8" fill="#66ff66">G−</text>
  <text x="460" y="148" text-anchor="middle" font-size="8" fill="#6699ff">B−</text>

  <!-- Wire stubs down from strip terminals -->
  <line x1="130" y1="140" x2="130" y2="160" stroke="#cc2222" stroke-width="2"/>
  <line x1="240" y1="140" x2="240" y2="160" stroke="#cc6666" stroke-width="1.5"/>
  <line x1="350" y1="140" x2="350" y2="160" stroke="#66bb66" stroke-width="1.5"/>
  <line x1="460" y1="140" x2="460" y2="160" stroke="#6688cc" stroke-width="1.5"/>

  <!-- ═══════════════════════════════════════════════════
       +24V SUPPLY RAIL  (power symbol above strip +24V terminal)
       Also branches right to feed buck converter
       ═══════════════════════════════════════════════════ -->
  <!-- Rail up to power symbol -->
  <line x1="130" y1="75" x2="130" y2="52" stroke="#cc2222" stroke-width="2"/>
  <line x1="118" y1="52" x2="142" y2="52" stroke="#cc2222" stroke-width="2.5"/>
  <text x="130" y="46" text-anchor="middle" font-size="10" fill="#cc2222" font-weight="bold">+24V</text>
  <text x="130" y="68" text-anchor="middle" font-size="8"  fill="#cc2222" font-style="italic">(ext. PSU)</text>

  <!-- +24V rail runs right at y=52 to feed buck converter at x=529 -->
  <line x1="130" y1="52" x2="529" y2="52" stroke="#cc2222" stroke-width="1.5" stroke-dasharray="5,3"/>
  <line x1="529" y1="52" x2="529" y2="118" stroke="#cc2222" stroke-width="1.5"/>
  <circle cx="529" cy="52" r="3.5" fill="#cc2222"/>

  <!-- ═══════════════════════════════════════════════════
       BUCK CONVERTER  (24V → 5V, powers Arduino)
       Box: rect(490, 118, 78, 90)  x:490..568, y:118..208
       IN+ at top (529,118), GND at bottom (529,208), OUT+ at right (568,150)
       ═══════════════════════════════════════════════════ -->
  <rect x="490" y="118" width="78" height="90" rx="4" fill="#fff8e1" stroke="#cc7700" stroke-width="1.8"/>
  <text x="529" y="135" text-anchor="middle" font-size="8"  fill="#884400" font-weight="bold">BUCK CONV</text>
  <text x="529" y="148" text-anchor="middle" font-size="8"  fill="#884400">24V → 3.3V</text>
  <text x="529" y="161" text-anchor="middle" font-size="7"  fill="#aa6600">e.g. LM2596</text>
  <text x="529" y="172" text-anchor="middle" font-size="7"  fill="#aa6600">set output to 3.3V</text>
  <text x="529" y="183" text-anchor="middle" font-size="7"  fill="#aa6600">≥500mA rated</text>
  <!-- IN+ label -->
  <text x="494" y="127" font-size="7" fill="#999">IN+</text>
  <!-- OUT+ label -->
  <text x="494" y="154" font-size="7" fill="#999">OUT+</text>
  <!-- GND label -->
  <text x="494" y="205" font-size="7" fill="#999">GND</text>

  <!-- OUT+ wire: (568,150) → (572,150) → ESP8266 3.3V stub -->
  <line x1="568" y1="150" x2="590" y2="150" stroke="#cc2222" stroke-width="2"/>
  <!-- Junction at Arduino 5V stub -->
  <circle cx="572" cy="150" r="3.5" fill="#cc2222"/>

  <!-- Buck GND wire: (529,208) → (529,490) GND bus -->
  <line x1="529" y1="208" x2="529" y2="490" stroke="#444" stroke-width="1.5"/>
  <circle cx="529" cy="490" r="4" fill="#333"/>

  <!-- ═══════════════════════════════════════════════════
       THREE MOSFET CIRCUITS  (R, G, B)
       IRLZ44N — N-ch, logic-level, 55V 47A
       Boxes at cx = 240, 350, 460; y:275..335
       Drain at top-centre, Source at bottom-centre, Gate at left-centre (y=305)
       ═══════════════════════════════════════════════════ -->

  <!-- ── Red MOSFET (cx=240) ── -->
  <rect x="218" y="275" width="44" height="60" rx="3" fill="#fffbe6" stroke="#333" stroke-width="1.5"/>
  <text x="240" y="292" text-anchor="middle" font-size="8" fill="#333" font-weight="bold">IRLZ44N</text>
  <text x="240" y="304" text-anchor="middle" font-size="8" fill="#555">N-MOSFET</text>
  <text x="220" y="320" font-size="8" fill="#888">G</text>
  <text x="236" y="271" text-anchor="middle" font-size="8" fill="#888">D</text>
  <text x="236" y="344" text-anchor="middle" font-size="8" fill="#888">S</text>
  <line x1="240" y1="160" x2="240" y2="275" stroke="#cc6666" stroke-width="1.5"/>
  <line x1="240" y1="335" x2="240" y2="490" stroke="#444" stroke-width="1.5"/>

  <!-- ── Green MOSFET (cx=350) ── -->
  <rect x="328" y="275" width="44" height="60" rx="3" fill="#fffbe6" stroke="#333" stroke-width="1.5"/>
  <text x="350" y="292" text-anchor="middle" font-size="8" fill="#333" font-weight="bold">IRLZ44N</text>
  <text x="350" y="304" text-anchor="middle" font-size="8" fill="#555">N-MOSFET</text>
  <text x="330" y="320" font-size="8" fill="#888">G</text>
  <text x="346" y="271" text-anchor="middle" font-size="8" fill="#888">D</text>
  <text x="346" y="344" text-anchor="middle" font-size="8" fill="#888">S</text>
  <line x1="350" y1="160" x2="350" y2="275" stroke="#66bb66" stroke-width="1.5"/>
  <line x1="350" y1="335" x2="350" y2="490" stroke="#444" stroke-width="1.5"/>

  <!-- ── Blue MOSFET (cx=460) ── -->
  <rect x="438" y="275" width="44" height="60" rx="3" fill="#fffbe6" stroke="#333" stroke-width="1.5"/>
  <text x="460" y="292" text-anchor="middle" font-size="8" fill="#333" font-weight="bold">IRLZ44N</text>
  <text x="460" y="304" text-anchor="middle" font-size="8" fill="#555">N-MOSFET</text>
  <text x="440" y="320" font-size="8" fill="#888">G</text>
  <text x="456" y="271" text-anchor="middle" font-size="8" fill="#888">D</text>
  <text x="456" y="344" text-anchor="middle" font-size="8" fill="#888">S</text>
  <line x1="460" y1="160" x2="460" y2="275" stroke="#6688cc" stroke-width="1.5"/>
  <line x1="460" y1="335" x2="460" y2="490" stroke="#444" stroke-width="1.5"/>

  <!-- ═══════════════════════════════════════════════════
       GATE DRIVE CIRCUITS
       Arduino D9/D10/D11 → 100Ω → MOSFET gate
       10kΩ pull-down from gate node to GND
       Gate junctions all at y=305 (left of each MOSFET box)

       Pin positions on Arduino left side:
         D9  y=215  (gate wire horizontal at y=215)
         D10 y=260  (gate wire horizontal at y=260)
         D11 y=295  (gate wire horizontal at y=295)

       Crossing: D11 (y=295) crosses G down-wire (x=248, y=260→305)
                 → bridge arc at (248, 295)
       ═══════════════════════════════════════════════════ -->

  <!-- ── Red gate  D9 (y=215) → junction (107,305) ── -->
  <line x1="572" y1="215" x2="107" y2="215" stroke="#ff6666" stroke-width="1.5"/>
  <line x1="107" y1="215" x2="107" y2="305" stroke="#ff6666" stroke-width="1.5"/>
  <circle cx="107" cy="305" r="4" fill="#ff6666"/>
  <!-- 100Ω gate resistor -->
  <line x1="107" y1="305" x2="128" y2="305" stroke="#333" stroke-width="1.5"/>
  <rect x="128" y="297" width="28" height="16" fill="white" stroke="#333" stroke-width="1.2" rx="2"/>
  <text x="142" y="309" text-anchor="middle" font-size="7" fill="#222">100Ω</text>
  <line x1="156" y1="305" x2="218" y2="305" stroke="#333" stroke-width="1.5"/>
  <!-- 10kΩ pull-down -->
  <line x1="107" y1="305" x2="107" y2="365" stroke="#333" stroke-width="1.5"/>
  <rect x="99"  y="365" width="16" height="28" fill="white" stroke="#333" stroke-width="1.2" rx="2"/>
  <text x="107" y="376" text-anchor="middle" font-size="7" fill="#222">10k</text>
  <text x="107" y="386" text-anchor="middle" font-size="7" fill="#222">Ω</text>
  <line x1="107" y1="393" x2="107" y2="490" stroke="#333" stroke-width="1.5"/>
  <text x="107" y="208" text-anchor="middle" font-size="8" fill="#ff6666">D6/GPIO12 (R)</text>

  <!-- ── Green gate  D10 (y=260) → junction (248,305) ── -->
  <line x1="572" y1="260" x2="248" y2="260" stroke="#66cc66" stroke-width="1.5"/>
  <line x1="248" y1="260" x2="248" y2="305" stroke="#66cc66" stroke-width="1.5"/>
  <circle cx="248" cy="305" r="4" fill="#66cc66"/>
  <!-- 100Ω -->
  <line x1="248" y1="305" x2="269" y2="305" stroke="#333" stroke-width="1.5"/>
  <rect x="269" y="297" width="28" height="16" fill="white" stroke="#333" stroke-width="1.2" rx="2"/>
  <text x="283" y="309" text-anchor="middle" font-size="7" fill="#222">100Ω</text>
  <line x1="297" y1="305" x2="328" y2="305" stroke="#333" stroke-width="1.5"/>
  <!-- 10kΩ pull-down -->
  <line x1="248" y1="305" x2="248" y2="365" stroke="#333" stroke-width="1.5"/>
  <rect x="240" y="365" width="16" height="28" fill="white" stroke="#333" stroke-width="1.2" rx="2"/>
  <text x="248" y="376" text-anchor="middle" font-size="7" fill="#222">10k</text>
  <text x="248" y="386" text-anchor="middle" font-size="7" fill="#222">Ω</text>
  <line x1="248" y1="393" x2="248" y2="490" stroke="#333" stroke-width="1.5"/>
  <text x="248" y="253" text-anchor="middle" font-size="8" fill="#66cc66">D7/GPIO13 (G)</text>

  <!-- ── Blue gate  D11 (y=295) → junction (388,305) ──
       D11 horizontal at y=295 crosses G down-wire at x=248 (y=260→305)
       → bridge arc at x=248 ── -->
  <!-- Right segment of D11 wire (from x=253 to x=388, uninterrupted) -->
  <line x1="572" y1="295" x2="253" y2="295" stroke="#6699ff" stroke-width="1.5"/>
  <!-- Bridge arc over G down-wire -->
  <path d="M 253 295 Q 248 287 243 295" fill="none" stroke="#6699ff" stroke-width="1.5"/>
  <text x="248" y="284" text-anchor="middle" font-size="7" fill="#aaa" font-style="italic">no join</text>
  <line x1="243" y1="295" x2="388" y2="295" stroke="#6699ff" stroke-width="1.5"/>
  <line x1="388" y1="295" x2="388" y2="305" stroke="#6699ff" stroke-width="1.5"/>
  <circle cx="388" cy="305" r="4" fill="#6699ff"/>
  <!-- 100Ω -->
  <line x1="388" y1="305" x2="409" y2="305" stroke="#333" stroke-width="1.5"/>
  <rect x="409" y="297" width="28" height="16" fill="white" stroke="#333" stroke-width="1.2" rx="2"/>
  <text x="423" y="309" text-anchor="middle" font-size="7" fill="#222">100Ω</text>
  <line x1="437" y1="305" x2="438" y2="305" stroke="#333" stroke-width="1.5"/>
  <!-- 10kΩ pull-down -->
  <line x1="388" y1="305" x2="388" y2="365" stroke="#333" stroke-width="1.5"/>
  <rect x="380" y="365" width="16" height="28" fill="white" stroke="#333" stroke-width="1.2" rx="2"/>
  <text x="388" y="376" text-anchor="middle" font-size="7" fill="#222">10k</text>
  <text x="388" y="386" text-anchor="middle" font-size="7" fill="#222">Ω</text>
  <line x1="388" y1="393" x2="388" y2="490" stroke="#333" stroke-width="1.5"/>
  <text x="388" y="288" text-anchor="middle" font-size="8" fill="#6699ff">D5/GPIO14 (B)</text>

  <!-- ═══════════════════════════════════════════════════
       GND BUS  (shared: 24V PSU −ve, MOSFET sources, Arduino GND, buck GND)
       y=490, x:50..760
       ═══════════════════════════════════════════════════ -->
  <line x1="50" y1="490" x2="760" y2="490" stroke="#333" stroke-width="2.5" stroke-dasharray="8,3"/>

  <!-- Junction dots -->
  <circle cx="107" cy="490" r="4" fill="#333"/>
  <circle cx="240" cy="490" r="4" fill="#333"/>
  <circle cx="248" cy="490" r="4" fill="#333"/>
  <circle cx="350" cy="490" r="4" fill="#333"/>
  <circle cx="388" cy="490" r="4" fill="#333"/>
  <circle cx="460" cy="490" r="4" fill="#333"/>
  <circle cx="529" cy="490" r="4" fill="#333"/>
  <circle cx="556" cy="490" r="4" fill="#333"/>

  <!-- GND label -->
  <text x="44" y="494" text-anchor="end" font-size="10" fill="#333" font-weight="bold">GND</text>
  <text x="44" y="506" text-anchor="end" font-size="8"  fill="#888" font-style="italic">(shared)</text>
  <text x="55" y="510" font-size="8" fill="#888" font-style="italic">← 24V PSU −ve also connects here</text>

  <!-- ═══════════════════════════════════════════════════
       ARDUINO BOARD
       rect(590, 58, 165, 480)  x:590..755, y:58..538
       ═══════════════════════════════════════════════════ -->
  <rect x="590" y="58" width="165" height="480" rx="8" fill="#1a5c2e" stroke="#0b3318" stroke-width="2.5"/>
  <text x="672" y="80"  text-anchor="middle" font-size="12" font-weight="bold" fill="white">ESP8266</text>
  <text x="672" y="96"  text-anchor="middle" font-size="9"  fill="#a8e6b8">NodeMCU / D1 Mini</text>
  <rect x="632" y="523" width="80" height="12" rx="3" fill="#444" stroke="#222" stroke-width="1"/>
  <text x="672" y="533" text-anchor="middle" font-size="8" fill="white">USB (optional)</text>

  <!-- LEFT side pin labels (inside board) -->
  <text x="602" y="154" font-size="9" fill="#ffaaaa">3.3V</text>
  <text x="602" y="180" font-size="9" fill="#aaaaff">GND</text>
  <text x="602" y="220" font-size="9" fill="#ff9999">D6/12</text>
  <text x="602" y="265" font-size="9" fill="#99cc99">D7/13</text>
  <text x="602" y="300" font-size="9" fill="#9999ee">D5/14</text>

  <!-- LEFT side pin stubs (x=590 → x=572) -->
  <!-- +5V: y=150 (connects to buck OUT+) -->
  <line x1="590" y1="150" x2="572" y2="150" stroke="#cc2222" stroke-width="2"/>
  <!-- GND: y=175 (connects to GND bus) -->
  <line x1="590" y1="175" x2="572" y2="175" stroke="#b8a050" stroke-width="2"/>
  <!-- D9 (R PWM): y=215 -->
  <line x1="590" y1="215" x2="572" y2="215" stroke="#ff6666" stroke-width="2"/>
  <!-- D10 (G PWM): y=260 -->
  <line x1="590" y1="260" x2="572" y2="260" stroke="#66cc66" stroke-width="2"/>
  <!-- D11 (B PWM): y=295 -->
  <line x1="590" y1="295" x2="572" y2="295" stroke="#6699ff" stroke-width="2"/>

  <!-- Arduino GND → GND bus -->
  <line x1="572" y1="175" x2="556" y2="175" stroke="#444" stroke-width="1.5"/>
  <line x1="556" y1="175" x2="556" y2="490" stroke="#444" stroke-width="1.5"/>

  <!-- RIGHT side labels (GPIO/D-pin for ESP8266) -->
  <text x="742" y="124" text-anchor="end" font-size="9" fill="#ccffcc">D1/5</text>
  <text x="742" y="166" text-anchor="end" font-size="9" fill="#ccffcc">D2/4</text>
  <text x="742" y="208" text-anchor="end" font-size="9" fill="#ccffcc">D3/0</text>
  <text x="742" y="250" text-anchor="end" font-size="9" fill="#ccffcc">D4/2</text>
  <text x="742" y="292" text-anchor="end" font-size="9" fill="#ccffcc">RX/3</text>
  <text x="742" y="334" text-anchor="end" font-size="9" fill="#ccffcc">TX/1</text>
  <text x="742" y="376" text-anchor="end" font-size="9" fill="#ccffcc">D0/16</text>

  <!-- RIGHT side pin stubs -->
  <line x1="755" y1="120" x2="773" y2="120" stroke="#b8a050" stroke-width="2"/>
  <line x1="755" y1="162" x2="773" y2="162" stroke="#b8a050" stroke-width="2"/>
  <line x1="755" y1="204" x2="773" y2="204" stroke="#b8a050" stroke-width="2"/>
  <line x1="755" y1="246" x2="773" y2="246" stroke="#b8a050" stroke-width="2"/>
  <line x1="755" y1="288" x2="773" y2="288" stroke="#b8a050" stroke-width="2"/>
  <line x1="755" y1="330" x2="773" y2="330" stroke="#b8a050" stroke-width="2"/>
  <line x1="755" y1="372" x2="773" y2="372" stroke="#b8a050" stroke-width="2"/>

  <!-- ═══════════════════════════════════════════════════
       7 BUTTON CIRCUITS  (right of Arduino, D2–D8)
       Wire → N/O switch → GND symbol
       ═══════════════════════════════════════════════════ -->

  <!-- BTN 1 (D2, y=120) Toggle Red -->
  <line x1="773" y1="120" x2="805" y2="120" stroke="#333" stroke-width="1.5"/>
  <circle cx="807" cy="120" r="3" fill="#333"/>
  <line x1="807" y1="120" x2="829" y2="107" stroke="#333" stroke-width="1.5"/>
  <circle cx="833" cy="120" r="3" fill="#333"/>
  <line x1="833" y1="120" x2="858" y2="120" stroke="#333" stroke-width="1.5"/>
  <line x1="858" y1="120" x2="858" y2="134" stroke="#333" stroke-width="1.5"/>
  <line x1="846" y1="134" x2="870" y2="134" stroke="#333" stroke-width="2"/>
  <line x1="850" y1="139" x2="866" y2="139" stroke="#333" stroke-width="2"/>
  <line x1="854" y1="144" x2="862" y2="144" stroke="#333" stroke-width="2"/>
  <text x="876" y="124" font-size="10" fill="#cc0000" font-weight="bold">BTN 1</text>
  <text x="924" y="124" font-size="10" fill="#555">Toggle Red</text>

  <!-- BTN 2 (D3, y=162) Toggle Green -->
  <line x1="773" y1="162" x2="805" y2="162" stroke="#333" stroke-width="1.5"/>
  <circle cx="807" cy="162" r="3" fill="#333"/>
  <line x1="807" y1="162" x2="829" y2="149" stroke="#333" stroke-width="1.5"/>
  <circle cx="833" cy="162" r="3" fill="#333"/>
  <line x1="833" y1="162" x2="858" y2="162" stroke="#333" stroke-width="1.5"/>
  <line x1="858" y1="162" x2="858" y2="176" stroke="#333" stroke-width="1.5"/>
  <line x1="846" y1="176" x2="870" y2="176" stroke="#333" stroke-width="2"/>
  <line x1="850" y1="181" x2="866" y2="181" stroke="#333" stroke-width="2"/>
  <line x1="854" y1="186" x2="862" y2="186" stroke="#333" stroke-width="2"/>
  <text x="876" y="166" font-size="10" fill="#007700" font-weight="bold">BTN 2</text>
  <text x="924" y="166" font-size="10" fill="#555">Toggle Green</text>

  <!-- BTN 3 (D4, y=204) Toggle Blue -->
  <line x1="773" y1="204" x2="805" y2="204" stroke="#333" stroke-width="1.5"/>
  <circle cx="807" cy="204" r="3" fill="#333"/>
  <line x1="807" y1="204" x2="829" y2="191" stroke="#333" stroke-width="1.5"/>
  <circle cx="833" cy="204" r="3" fill="#333"/>
  <line x1="833" y1="204" x2="858" y2="204" stroke="#333" stroke-width="1.5"/>
  <line x1="858" y1="204" x2="858" y2="218" stroke="#333" stroke-width="1.5"/>
  <line x1="846" y1="218" x2="870" y2="218" stroke="#333" stroke-width="2"/>
  <line x1="850" y1="223" x2="866" y2="223" stroke="#333" stroke-width="2"/>
  <line x1="854" y1="228" x2="862" y2="228" stroke="#333" stroke-width="2"/>
  <text x="876" y="208" font-size="10" fill="#0000cc" font-weight="bold">BTN 3</text>
  <text x="924" y="208" font-size="10" fill="#555">Toggle Blue</text>

  <!-- BTN 4 (D5, y=246) Increment Red -->
  <line x1="773" y1="246" x2="805" y2="246" stroke="#333" stroke-width="1.5"/>
  <circle cx="807" cy="246" r="3" fill="#333"/>
  <line x1="807" y1="246" x2="829" y2="233" stroke="#333" stroke-width="1.5"/>
  <circle cx="833" cy="246" r="3" fill="#333"/>
  <line x1="833" y1="246" x2="858" y2="246" stroke="#333" stroke-width="1.5"/>
  <line x1="858" y1="246" x2="858" y2="260" stroke="#333" stroke-width="1.5"/>
  <line x1="846" y1="260" x2="870" y2="260" stroke="#333" stroke-width="2"/>
  <line x1="850" y1="265" x2="866" y2="265" stroke="#333" stroke-width="2"/>
  <line x1="854" y1="270" x2="862" y2="270" stroke="#333" stroke-width="2"/>
  <text x="876" y="250" font-size="10" fill="#cc0000" font-weight="bold">BTN 4</text>
  <text x="924" y="250" font-size="10" fill="#555">Increment Red</text>

  <!-- BTN 5 (D6, y=288) Increment Green -->
  <line x1="773" y1="288" x2="805" y2="288" stroke="#333" stroke-width="1.5"/>
  <circle cx="807" cy="288" r="3" fill="#333"/>
  <line x1="807" y1="288" x2="829" y2="275" stroke="#333" stroke-width="1.5"/>
  <circle cx="833" cy="288" r="3" fill="#333"/>
  <line x1="833" y1="288" x2="858" y2="288" stroke="#333" stroke-width="1.5"/>
  <line x1="858" y1="288" x2="858" y2="302" stroke="#333" stroke-width="1.5"/>
  <line x1="846" y1="302" x2="870" y2="302" stroke="#333" stroke-width="2"/>
  <line x1="850" y1="307" x2="866" y2="307" stroke="#333" stroke-width="2"/>
  <line x1="854" y1="312" x2="862" y2="312" stroke="#333" stroke-width="2"/>
  <text x="876" y="292" font-size="10" fill="#007700" font-weight="bold">BTN 5</text>
  <text x="924" y="292" font-size="10" fill="#555">Increment Green</text>

  <!-- BTN 6 (D7, y=330) Increment Blue -->
  <line x1="773" y1="330" x2="805" y2="330" stroke="#333" stroke-width="1.5"/>
  <circle cx="807" cy="330" r="3" fill="#333"/>
  <line x1="807" y1="330" x2="829" y2="317" stroke="#333" stroke-width="1.5"/>
  <circle cx="833" cy="330" r="3" fill="#333"/>
  <line x1="833" y1="330" x2="858" y2="330" stroke="#333" stroke-width="1.5"/>
  <line x1="858" y1="330" x2="858" y2="344" stroke="#333" stroke-width="1.5"/>
  <line x1="846" y1="344" x2="870" y2="344" stroke="#333" stroke-width="2"/>
  <line x1="850" y1="349" x2="866" y2="349" stroke="#333" stroke-width="2"/>
  <line x1="854" y1="354" x2="862" y2="354" stroke="#333" stroke-width="2"/>
  <text x="876" y="334" font-size="10" fill="#0000cc" font-weight="bold">BTN 6</text>
  <text x="924" y="334" font-size="10" fill="#555">Increment Blue</text>

  <!-- BTN 7 (D8, y=372) Master Toggle -->
  <line x1="773" y1="372" x2="805" y2="372" stroke="#333" stroke-width="1.5"/>
  <circle cx="807" cy="372" r="3" fill="#333"/>
  <line x1="807" y1="372" x2="829" y2="359" stroke="#333" stroke-width="1.5"/>
  <circle cx="833" cy="372" r="3" fill="#333"/>
  <line x1="833" y1="372" x2="858" y2="372" stroke="#333" stroke-width="1.5"/>
  <line x1="858" y1="372" x2="858" y2="386" stroke="#333" stroke-width="1.5"/>
  <line x1="846" y1="386" x2="870" y2="386" stroke="#333" stroke-width="2"/>
  <line x1="850" y1="391" x2="866" y2="391" stroke="#333" stroke-width="2"/>
  <line x1="854" y1="396" x2="862" y2="396" stroke="#333" stroke-width="2"/>
  <text x="876" y="376" font-size="10" fill="#555" font-weight="bold">BTN 7</text>
  <text x="924" y="376" font-size="10" fill="#555">Master Toggle</text>

  <text x="775" y="415" font-size="8" fill="#888" font-style="italic">BTN 1–6: internal pull-up, wire pin → GND</text>
  <text x="775" y="427" font-size="8" fill="#cc7700" font-style="italic">BTN 7 (GPIO16): external 10kΩ to 3.3V required (no internal pull-up)</text>

  <!-- ═══════════════════════════════════════════════════
       NOTES / LEGEND  (bottom)
       ═══════════════════════════════════════════════════ -->
  <rect x="30" y="515" width="530" height="260" rx="5" fill="white" stroke="#ccc" stroke-width="1"/>
  <text x="295" y="534" text-anchor="middle" font-size="11" font-weight="bold" fill="#333">Notes &amp; Component Values</text>

  <!-- Left column -->
  <text x="42" y="552" font-size="9" fill="#884400" font-weight="bold">Buck converter (24V → 3.3V):</text>
  <text x="42" y="565" font-size="9" fill="#555">  Any LM2596 module; adjust trimmer to 3.3V before connecting</text>
  <text x="42" y="578" font-size="9" fill="#555">  Rated ≥500mA (ESP8266 draws &lt;200mA typically)</text>
  <text x="42" y="591" font-size="9" fill="#555">  Connect OUT+ to ESP8266 3.3V pin — do NOT use 5V</text>

  <text x="42" y="610" font-size="9" fill="#333" font-weight="bold">MOSFET (×3):  IRLZ44N</text>
  <text x="42" y="623" font-size="9" fill="#555">  N-ch logic-level, 55V 47A TO-220 — fully on at 3.3V gate</text>
  <text x="42" y="636" font-size="9" fill="#555">  Add heatsink if strip draws &gt;3A per channel</text>

  <text x="42" y="655" font-size="9" fill="#333" font-weight="bold">Gate resistor (×3):  100Ω</text>
  <text x="42" y="668" font-size="9" fill="#555">  Limits inrush / suppresses ringing on gate wire</text>

  <text x="42" y="687" font-size="9" fill="#333" font-weight="bold">Pull-down resistor (×3):  10kΩ</text>
  <text x="42" y="700" font-size="9" fill="#555">  Holds gate LOW during ESP8266 boot — prevents flicker</text>

  <text x="42" y="719" font-size="9" fill="#333" font-weight="bold">GPIO16 (BTN7) — no internal pull-up:</text>
  <text x="42" y="732" font-size="9" fill="#555">  Wire external 10kΩ from GPIO16 to 3.3V; button to GND</text>

  <text x="42" y="749" font-size="9" fill="#333" font-weight="bold">Shared GND:</text>
  <text x="42" y="762" font-size="9" fill="#555">  24V PSU −ve, buck GND, ESP8266 GND, all MOSFET sources</text>

  <!-- Right column — symbol legend -->
  <line x1="295" y1="515" x2="295" y2="770" stroke="#eee" stroke-width="1"/>
  <text x="420" y="552" text-anchor="middle" font-size="10" font-weight="bold" fill="#333">Symbols</text>

  <!-- N/O switch -->
  <line x1="315" y1="572" x2="333" y2="572" stroke="#333" stroke-width="1.5"/>
  <circle cx="335" cy="572" r="2.5" fill="#333"/>
  <line x1="335" y1="572" x2="353" y2="561" stroke="#333" stroke-width="1.5"/>
  <circle cx="357" cy="572" r="2.5" fill="#333"/>
  <line x1="357" y1="572" x2="375" y2="572" stroke="#333" stroke-width="1.5"/>
  <text x="382" y="576" font-size="9" fill="#555">N/O pushbutton</text>

  <!-- GND symbol -->
  <line x1="345" y1="594" x2="345" y2="604" stroke="#333" stroke-width="1.5"/>
  <line x1="335" y1="604" x2="355" y2="604" stroke="#333" stroke-width="2"/>
  <line x1="338" y1="609" x2="352" y2="609" stroke="#333" stroke-width="2"/>
  <line x1="341" y1="614" x2="349" y2="614" stroke="#333" stroke-width="2"/>
  <text x="362" y="609" font-size="9" fill="#555">Ground (0V)</text>

  <!-- Horizontal resistor -->
  <line x1="315" y1="633" x2="325" y2="633" stroke="#333" stroke-width="1.5"/>
  <rect x="325" y="626" width="20" height="14" fill="white" stroke="#333" stroke-width="1.2" rx="1"/>
  <line x1="345" y1="633" x2="355" y2="633" stroke="#333" stroke-width="1.5"/>
  <text x="362" y="637" font-size="9" fill="#555">Resistor (gate / series)</text>

  <!-- Vertical resistor (pull-down) -->
  <line x1="345" y1="650" x2="345" y2="658" stroke="#333" stroke-width="1.5"/>
  <rect x="337" y="658" width="16" height="20" fill="white" stroke="#333" stroke-width="1.2" rx="1"/>
  <line x1="345" y1="678" x2="345" y2="686" stroke="#333" stroke-width="1.5"/>
  <text x="362" y="671" font-size="9" fill="#555">Resistor (vertical /</text>
  <text x="362" y="682" font-size="9" fill="#555">pull-down)</text>

  <!-- MOSFET box -->
  <rect x="325" y="697" width="40" height="28" fill="#fffbe6" stroke="#333" stroke-width="1.2" rx="2"/>
  <text x="345" y="708" text-anchor="middle" font-size="7" fill="#333" font-weight="bold">IRLZ44N</text>
  <text x="345" y="718" text-anchor="middle" font-size="7" fill="#555">N-MOSFET</text>
  <text x="372" y="712" font-size="9" fill="#555">N-channel MOSFET</text>

  <!-- Buck converter box -->
  <rect x="320" y="730" width="50" height="30" fill="#fff8e1" stroke="#cc7700" stroke-width="1.2" rx="2"/>
  <text x="345" y="742" text-anchor="middle" font-size="7" fill="#884400" font-weight="bold">BUCK</text>
  <text x="345" y="753" text-anchor="middle" font-size="7" fill="#884400">CONV</text>
  <text x="377" y="748" font-size="9" fill="#555">Buck converter module</text>

  <!-- Bridge arc example -->
  <line x1="315" y1="768" x2="330" y2="768" stroke="#333" stroke-width="1.5"/>
  <path d="M 330 768 Q 337 761 344 768" fill="none" stroke="#333" stroke-width="1.5"/>
  <line x1="344" y1="768" x2="360" y2="768" stroke="#333" stroke-width="1.5"/>
  <text x="367" y="772" font-size="9" fill="#555">Wires cross, no join</text>

</svg>
